<?xml version="1.0" encoding="UTF-8" standalone="no"?>
<svg
   xmlns:dc="http://purl.org/dc/elements/1.1/"
   xmlns:cc="http://creativecommons.org/ns#"
   xmlns:rdf="http://www.w3.org/1999/02/22-rdf-syntax-ns#"
   xmlns:svg="http://www.w3.org/2000/svg"
   xmlns="http://www.w3.org/2000/svg"
   xmlns:sodipodi="http://sodipodi.sourceforge.net/DTD/sodipodi-0.dtd"
   xmlns:inkscape="http://www.inkscape.org/namespaces/inkscape"
   sodipodi:docname="logo mm press.svg"
   inkscape:version="1.0beta1 (32d4812, 2019-09-19)"
   version="1.1"
   id="svg5408"
   viewBox="0 0 222.60138 156.12461"
   height="44.061836mm"
   width="62.823055mm">
  <defs
     id="defs5410">
    <clipPath
       id="clipPath454"
       clipPathUnits="userSpaceOnUse">
      <path
         inkscape:connector-curvature="0"
         id="path456"
         d="m 0,841.89 595.28,0 L 595.28,0 0,0 0,841.89 Z" />
    </clipPath>
    <clipPath
       id="clipPath710"
       clipPathUnits="userSpaceOnUse">
      <path
         inkscape:connector-curvature="0"
         id="path712"
         d="m 0,841.89 595.28,0 L 595.28,0 0,0 0,841.89 Z" />
    </clipPath>
    <clipPath
       clipPathUnits="userSpaceOnUse"
       id="clipPath6317">
      <path
         d="m 0,211.333 354,0 L 354,0 0,0 0,211.333 Z"
         id="path6319"
         inkscape:connector-curvature="0" />
    </clipPath>
    <clipPath
       clipPathUnits="userSpaceOnUse"
       id="clipPath6323">
      <path
         d="M 0,0 354,0 354,211 0,211 0,0 Z"
         id="path6325"
         inkscape:connector-curvature="0" />
    </clipPath>
  </defs>
  <sodipodi:namedview
     inkscape:document-rotation="0"
     fit-margin-bottom="0"
     fit-margin-right="0"
     fit-margin-left="0"
     fit-margin-top="0"
     inkscape:window-maximized="0"
     inkscape:window-y="23"
     inkscape:window-x="0"
     inkscape:window-height="881"
     inkscape:window-width="1635"
     showgrid="false"
     inkscape:current-layer="layer1"
     inkscape:document-units="px"
     inkscape:cy="17.420405"
     inkscape:cx="114.59132"
     inkscape:zoom="2.131387"
     inkscape:pageshadow="2"
     inkscape:pageopacity="0.0"
     borderopacity="1.0"
     bordercolor="#666666"
     pagecolor="#ffffff"
     id="base" />
  <metadata
     id="metadata5413">
    <rdf:RDF>
      <cc:Work
         rdf:about="">
        <dc:format>image/svg+xml</dc:format>
        <dc:type
           rdf:resource="http://purl.org/dc/dcmitype/StillImage" />
        <dc:title />
      </cc:Work>
    </rdf:RDF>
  </metadata>
  <g
     transform="translate(-263.46591,-325.782)"
     id="layer1"
     inkscape:groupmode="layer"
     inkscape:label="Layer 1">
    <path
       d="m 457.72091,454.467 -165.90875,0 c -15.59,0 -28.34625,-12.75625 -28.34625,-28.34625 l 0,-71.9925 c 0,-15.59 12.75625,-28.34625 28.34625,-28.34625 l 165.90875,0 c 15.59,0 28.34625,12.75625 28.34625,28.34625 l 0,71.9925 c 0,15.59 -12.75625,28.34625 -28.34625,28.34625"
       style="fill:#585689;fill-opacity:1;fill-rule:nonzero;stroke:none"
       id="path460"
       inkscape:connector-curvature="0" />
    <path
       d="m 263.46604,410.88162 0,52.19125 c 0,10.35875 8.475,18.83375 18.83375,18.83375 l 184.93375,0 c 10.35875,0 18.83375,-8.475 18.83375,-18.83375 l 0,-52.19125 -222.60125,0 z"
       style="fill:#2b2e32;fill-opacity:1;fill-rule:nonzero;stroke:none"
       id="path464"
       inkscape:connector-curvature="0" />
    <text
       id="text474"
       style="font-variant:normal;font-weight:bold;font-stretch:normal;line-height:0%;font-family:'AG Book Rounded Bold';-inkscape-font-specification:AGBookRounded-Bold;writing-mode:lr-tb;fill:#2b2e32;fill-opacity:1;fill-rule:nonzero;stroke:none"
       x="341.08853"
       y="406.52957"><tspan
         style="font-size:44.2755px;line-height:1.25"
         id="tspan476"
         sodipodi:role="line"
         y="406.52957"
         x="341.08853 381.68915 415.82556 448.10242">MONK</tspan></text>
    <text
       id="text478"
       style="font-variant:normal;font-weight:normal;font-stretch:normal;line-height:0%;font-family:'AG Book Rounded Regular';-inkscape-font-specification:AGBookRounded-Regular;writing-mode:lr-tb;fill:#ffffff;fill-opacity:1;fill-rule:nonzero;stroke:none"
       x="341.08853"
       y="450.45096"><tspan
         style="font-size:42.1484px;line-height:1.25"
         id="tspan480"
         sodipodi:role="line"
         y="450.45096"
         x="341.08853 376.19812 401.65573 428.88361 454.75427">MAKES</tspan></text>
    <g
       transform="matrix(1.25,0,0,-1.25,313.92075,447.94745)"
       id="g714">
      <path
         inkscape:connector-curvature="0"
         id="path716"
         style="fill:#ffffff;fill-opacity:1;fill-rule:nonzero;stroke:none"
         d="m 0,0 c 0.765,1.209 1.301,2.16 1.475,3.285 l 0.788,0 c 1.571,0 2.849,1.33 2.849,2.964 l 0,1.012 c 0,0.716 -0.244,1.387 -0.671,1.911 0.625,0.55 1.004,1.358 1.004,2.24 l 0,1.012 c 0,0.794 -0.309,1.533 -0.833,2.075 0.524,0.543 0.833,1.281 0.833,2.076 l 0,1.011 c 0,1.636 -1.304,2.963 -2.912,2.963 l -19.464,0 c -1.608,0 -2.911,-1.327 -2.911,-2.963 l 0,-1.011 c 0,-0.795 0.308,-1.533 0.833,-2.076 -0.525,-0.542 -0.833,-1.281 -0.833,-2.075 l 0,-1.012 c 0,-0.882 0.378,-1.69 1.003,-2.24 -0.427,-0.524 -0.671,-1.195 -0.671,-1.911 l 0,-1.012 c 0,-1.634 1.279,-2.964 2.85,-2.964 l 0.788,0 C -15.698,2.16 -15.162,1.209 -14.397,0 l 0.038,-0.016 c 4.587,-1.925 9.734,-1.925 14.321,0 L 0,0 Z" />
    </g>
    <g
       transform="matrix(1.25,0,0,-1.25,317.08725,419.69833)"
       id="g718">
      <path
         inkscape:connector-curvature="0"
         id="path720"
         style="fill:#ffffff;fill-opacity:1;fill-rule:nonzero;stroke:none"
         d="m 0,0 -19.464,0 c -1.514,0 -2.746,1.254 -2.746,2.796 l 0,0.546 c 0.065,5.815 -2.343,11.358 -6.607,15.214 l -1.302,1.256 c -5.325,5.462 -8.347,12.874 -8.347,20.609 0,16.128 12.89,29.249 28.734,29.249 15.844,0 28.734,-13.121 28.734,-29.249 0,-7.735 -3.022,-15.147 -8.347,-20.609 L 9.353,18.556 C 5.09,14.7 2.681,9.157 2.745,3.35 l 0,-0.554 C 2.745,1.254 1.513,0 0,0" />
    </g>
    <g
       transform="matrix(1.25,0,0,-1.25,304.92225,373.1712)"
       id="g722">
      <path
         inkscape:connector-curvature="0"
         id="path724"
         style="fill:#ffffff;fill-opacity:1;fill-rule:nonzero;stroke:none"
         d="m 0,0 c -0.143,0 -0.365,-0.035 -0.64,-0.341 -0.687,-0.763 -1.083,-2.523 -0.94,-4.185 0.122,-1.422 0.715,-2.617 1.58,-3.576 0.865,0.959 1.458,2.154 1.58,3.576 0.143,1.662 -0.253,3.422 -0.94,4.185 C 0.365,-0.035 0.143,0 0,0" />
    </g>
    <g
       transform="matrix(1.25,0,0,-1.25,288.673,375.66708)"
       id="g726">
      <path
         inkscape:connector-curvature="0"
         id="path728"
         style="fill:#ffffff;fill-opacity:1;fill-rule:nonzero;stroke:none"
         d="m 0,0 c -0.254,0.204 -0.576,0.286 -0.887,0.286 -0.404,0 -0.788,-0.14 -0.974,-0.334 -0.557,-0.58 0.031,-3.153 1.487,-5.219 C 0.49,-6.492 1.854,-7.658 3.492,-8.338 2.07,-2.679 0.83,-0.665 0,0" />
    </g>
    <g
       transform="matrix(1.25,0,0,-1.25,322.2795,375.3092)"
       id="g730">
      <path
         inkscape:connector-curvature="0"
         id="path732"
         style="fill:#ffffff;fill-opacity:1;fill-rule:nonzero;stroke:none"
         d="m 0,0 c -0.31,0 -0.632,-0.082 -0.887,-0.286 -0.829,-0.665 -2.07,-2.679 -3.491,-8.339 1.638,0.681 3.002,1.846 3.866,3.072 1.456,2.065 2.044,4.639 1.487,5.219 C 0.789,-0.14 0.404,0 0,0" />
    </g>
    <g
       transform="matrix(1.25,0,0,-1.25,321.63963,382.25033)"
       id="g734">
      <path
         inkscape:connector-curvature="0"
         id="path736"
         style="fill:#ffffff;fill-opacity:1;fill-rule:nonzero;stroke:none"
         d="m 0,0 c -0.864,-1.226 -2.228,-2.391 -3.866,-3.072 1.421,5.66 2.662,7.674 3.491,8.339 0.254,0.204 0.577,0.286 0.887,0.286 0.404,0 0.789,-0.141 0.975,-0.334 C 2.044,4.639 1.456,2.065 0,0 m -11.794,2.737 c -0.122,-1.422 -0.715,-2.617 -1.58,-3.576 -0.865,0.959 -1.458,2.154 -1.58,3.576 -0.142,1.662 0.253,3.423 0.94,4.185 0.275,0.306 0.497,0.341 0.64,0.341 0.143,0 0.365,-0.035 0.64,-0.341 0.687,-0.762 1.083,-2.523 0.94,-4.185 M -26.748,0 c -1.456,2.065 -2.044,4.639 -1.486,5.219 0.186,0.194 0.57,0.334 0.974,0.334 0.31,0 0.633,-0.082 0.887,-0.286 0.829,-0.665 2.07,-2.679 3.491,-8.339 -1.637,0.681 -3.001,1.846 -3.866,3.072 M 2.994,6.719 C 1.844,7.916 -0.34,8.025 -1.678,6.953 -2.436,6.345 -4.147,4.973 -6.178,-3.653 -6.71,-3.702 -7.255,-3.694 -7.81,-3.62 c -1.331,0.179 -2.73,0.656 -3.934,1.419 1.116,1.265 1.887,2.852 2.05,4.752 0.198,2.313 -0.385,4.598 -1.486,5.821 -0.611,0.679 -1.369,1.037 -2.194,1.037 -0.825,0 -1.583,-0.358 -2.194,-1.037 -1.101,-1.223 -1.684,-3.508 -1.486,-5.821 0.163,-1.9 0.934,-3.487 2.05,-4.752 -1.204,-0.763 -2.603,-1.24 -3.934,-1.419 -0.555,-0.074 -1.1,-0.081 -1.632,-0.033 -2.03,8.626 -3.741,9.998 -4.499,10.605 -1.339,1.074 -3.523,0.965 -4.673,-0.233 -1.822,-1.897 -0.181,-5.895 1.282,-7.97 1.226,-1.739 3.398,-3.578 6.156,-4.283 1.16,-5.283 2.413,-13.047 3.646,-24.424 l 2.121,0 c -1.194,11.072 -2.411,18.761 -3.547,24.126 0.463,-0.005 0.937,0.02 1.421,0.085 1.8,0.241 3.701,0.941 5.289,2.081 1.588,-1.14 3.488,-1.84 5.289,-2.081 0.484,-0.065 0.959,-0.095 1.421,-0.084 -1.136,-5.366 -2.353,-13.055 -3.546,-24.127 l 2.121,0 c 1.232,11.377 2.486,19.141 3.646,24.424 2.757,0.705 4.929,2.544 6.155,4.283 1.463,2.074 3.104,6.073 1.282,7.97" />
    </g>
    <path
       inkscape:connector-curvature="0"
       id="path738"
       style="fill:#ffffff;fill-opacity:1;fill-rule:nonzero;stroke:none"
       d="m 328.37575,390.82995 -46.51625,0 0,-28.12625 46.51625,0 0,28.12625 z" />
    <path
       inkscape:connector-curvature="0"
       id="path740"
       style="fill:#ffffff;fill-opacity:1;fill-rule:nonzero;stroke:none"
       d="m 317.49325,419.6987 -24.45375,0 0,-35.78125 24.45375,0 0,35.78125 z" />
    <g
       style="fill:#585689;fill-opacity:1"
       transform="matrix(1.25,0,0,-1.25,312.53312,359.58183)"
       id="g742">
      <path
         inkscape:connector-curvature="0"
         id="path744"
         style="fill:#585689;fill-opacity:1;fill-rule:nonzero;stroke:none"
         d="m 0,0 0,-1.083 4.22,0 0,1.235 C 4.22,0.816 3.739,1.973 2.82,2.898 2.139,3.583 0.96,4.396 -0.784,4.376 -3.613,4.342 -5.585,2.123 -5.585,0.152 l 0.004,-15.967 -10e-4,-0.009 c 0,-0.156 -0.2,-0.55 -0.672,-0.551 -0.188,0 -0.347,0.068 -0.474,0.203 -0.114,0.121 -0.166,0.263 -0.166,0.344 L -6.893,0.07 c 0,1.971 -1.972,4.19 -4.801,4.224 -1.745,0.02 -2.923,-0.793 -3.605,-1.479 -0.919,-0.924 -1.4,-2.081 -1.4,-2.745 l 0,-1.153 4.223,0 0,1.176 c 0,0.156 0.199,0.55 0.671,0.551 0.188,0 0.348,-0.068 0.475,-0.203 0.114,-0.121 0.165,-0.263 0.165,-0.344 l 0,-15.898 c 0,-1.971 1.972,-4.19 4.801,-4.224 1.744,-0.02 2.923,0.793 3.604,1.479 0.919,0.924 1.447,2.066 1.447,2.731 l 0,0.013 10e-4,15.807 c 0,0.08 0.052,0.222 0.166,0.343 0.127,0.135 0.286,0.203 0.475,0.203 C -0.2,0.551 0,0.157 0,0" />
    </g>
    <g
       style="fill:#585689;fill-opacity:1"
       transform="matrix(1.25,0,0,-1.25,298.596,359.4617)"
       id="g746">
      <path
         inkscape:connector-curvature="0"
         id="path748"
         style="fill:#585689;fill-opacity:1;fill-rule:nonzero;stroke:none"
         d="m 0,0 0,-3.668 4.222,0 0,3.645 c 0,0.665 -0.481,1.821 -1.4,2.746 C 2.141,3.408 0.962,4.222 -0.782,4.201 -3.611,4.168 -5.583,1.948 -5.583,-0.023 l 0.001,-15.898 c 0,-0.08 -0.052,-0.222 -0.166,-0.343 -0.127,-0.135 -0.287,-0.204 -0.475,-0.203 -0.472,0 -0.671,0.394 -0.671,0.551 l -0.002,0.009 0.005,15.966 c 0,1.971 -1.972,4.191 -4.801,4.224 -1.745,0.021 -2.923,-0.792 -3.605,-1.478 -0.919,-0.925 -1.399,-2.081 -1.399,-2.746 l -0.002,-15.477 c -0.001,-0.201 -0.161,-0.364 -0.358,-0.364 l -3.667,-0.004 0,-4.332 4.635,-0.006 c 0.949,-0.014 1.848,0.356 2.532,1.041 0.585,0.586 1.08,1.532 1.08,2.065 l 0,16.925 c 0,0.157 0.199,0.551 0.671,0.551 0.188,0.001 0.348,-0.068 0.475,-0.203 0.114,-0.121 0.165,-0.262 0.165,-0.343 l 0.002,-15.807 0,-0.013 c 0,-0.664 0.527,-1.806 1.446,-2.731 0.682,-0.686 1.86,-1.499 3.605,-1.478 2.829,0.033 4.801,2.252 4.801,4.224 L -1.312,0.005 c 0,0.08 0.052,0.222 0.166,0.343 0.127,0.135 0.286,0.203 0.475,0.203 C -0.2,0.551 0,0.157 0,0" />
    </g>
    <g
       style="fill:#585689;fill-opacity:1"
       transform="matrix(1.25,0,0,-1.25,332.174,379.1897)"
       id="g750">
      <path
         inkscape:connector-curvature="0"
         id="path752"
         style="fill:#585689;fill-opacity:1;fill-rule:nonzero;stroke:none"
         d="M 0,0 C -0.198,0 -0.358,0.163 -0.358,0.364 L -0.36,15.842 c 0,0.664 -0.48,1.821 -1.399,2.745 -0.682,0.686 -1.86,1.499 -3.605,1.479 -2.829,-0.034 -4.801,-2.253 -4.801,-4.224 l 0.005,-15.967 -0.002,-0.009 c 0,-0.157 -0.2,-0.551 -0.671,-0.551 -0.188,0 -0.348,0.068 -0.475,0.203 -0.114,0.121 -0.166,0.263 -0.166,0.343 l 10e-4,15.899 c 0,1.97 -1.972,4.19 -4.801,4.223 -1.744,0.021 -2.923,-0.792 -3.604,-1.478 -0.919,-0.925 -1.4,-2.081 -1.4,-2.745 l 0,-0.918 4.222,0 0,0.94 c 0,0.157 0.2,0.551 0.671,0.551 0.189,0.001 0.348,-0.068 0.475,-0.203 0.114,-0.121 0.166,-0.263 0.166,-0.343 l -10e-4,-15.898 c 0,-1.971 1.972,-4.191 4.801,-4.224 1.745,-0.02 2.923,0.793 3.605,1.478 0.919,0.925 1.446,2.067 1.446,2.732 l 0,0.013 0.002,15.806 c 0,0.081 0.051,0.223 0.165,0.344 0.127,0.135 0.287,0.203 0.475,0.203 0.472,-0.001 0.671,-0.395 0.671,-0.551 l 0,-16.925 c 0,-0.534 0.495,-1.48 1.08,-2.066 0.684,-0.685 1.583,-1.054 2.531,-1.041 l 4.636,0.006 0,4.333 L 0,0 Z" />
    </g>
    <g
       style="fill:#585689;fill-opacity:1"
       transform="matrix(1.25,0,0,-1.25,338.21712,384.61745)"
       id="g754">
      <path
         inkscape:connector-curvature="0"
         id="path756"
         style="fill:#585689;fill-opacity:1;fill-rule:nonzero;stroke:none"
         d="M 0,0 C 1.22,0.008 2.088,0.878 2.098,2.167 2.106,3.327 1.133,4.308 0.002,4.308 l -5.444,0 L -5.442,0 0,0 Z" />
    </g>
    <g
       style="fill:#585689;fill-opacity:1"
       transform="matrix(1.25,0,0,-1.25,271.62738,384.61745)"
       id="g758">
      <path
         inkscape:connector-curvature="0"
         id="path760"
         style="fill:#585689;fill-opacity:1;fill-rule:nonzero;stroke:none"
         d="m 0,0 c -1.22,0.008 -2.088,0.878 -2.098,2.167 -0.008,1.16 0.965,2.141 2.096,2.141 l 5.444,0 L 5.442,0 0,0 Z" />
    </g>
    <g
       transform="matrix(1.25,0,0,-1.25,233.87089,740.709)"
       id="g6311" />
    <g
       transform="matrix(0.56553472,0,0,0.64608146,148.69199,117.68903)"
       id="g6697">
      <path
         inkscape:connector-curvature="0"
         id="path6363"
         style="fill:#ffffff;fill-opacity:1;fill-rule:nonzero;stroke:none"
         d="m 353.90271,361.67468 c -1.10375,0.4325 -1.85,4.635 -1.42875,9.5925 0.41375,4.7875 2.1625,8.9575 3.4425,8.3125 1.34375,-0.68125 1.44,-4.4675 0.91375,-9.31 -0.6825,-6.03875 -1.92,-8.97375 -2.9275,-8.595 m 1.56375,-3.25125 c -0.03,-0.74125 0.17875,-0.9725 0.625,-0.69375 0.92625,0.54 2.24125,2.32375 2.7025,4.98625 0.4,2.405 0.6375,6.64625 1.1725,9.44375 0.575,2.95125 1.60125,4.8925 2.64625,4.2025 1.26875,-0.81625 1.365,-4.83375 0.79125,-8.5425 -0.0613,-0.4925 0.13875,-0.66 0.49,-0.32875 0.34875,0.3325 0.965,1.45125 1.23625,2.93625 0.51875,2.92125 -0.15375,6.5 -1.99625,7.33875 -1.81125,0.82125 -3.5,-0.11625 -4.65875,-2.21875 -0.0188,2.40125 -0.55625,4.85375 -2.1,5.70375 -2.9925,1.6475 -6.73125,-3.7025 -7.04125,-10.5875 -0.30125,-6.7175 1.1325,-10.13125 2.74125,-11.015 1.38375,-0.76125 2.84,0.36125 3.73625,2.1425 -0.17375,-1.305 -0.305,-2.4575 -0.345,-3.3675" />
      <path
         inkscape:connector-curvature="0"
         id="path6365"
         style="fill:#ffffff;fill-opacity:1;fill-rule:nonzero;stroke:none"
         d="m 368.77209,352.21668 c 1.21499,-0.235 3.23749,1.62875 3.42499,4.43375 0.16376,2.37125 -0.0237,6.555 0.23126,9.33125 0.27249,3.10125 1.40875,5.22875 2.58749,4.62125 1.3475,-0.67875 1.69376,-4.485 1.59001,-8.3225 -0.0113,-0.49625 0.22749,-0.595 0.55375,-0.29 0.45625,0.4175 0.84499,1.52875 0.9475,3.09375 0.19874,3.02125 -0.91875,6.3225 -2.88125,7.15 -2.87751,1.21125 -4.785,-1.4225 -5.53251,-5.93125 -0.82999,-5.085 0.0412,-11.33125 -0.72624,-11.45125 -0.4175,-0.045 -1.825,2.1 -2.59875,6.30875 -0.725,3.855 -0.3075,9.0025 0.105,14.04125 0.0437,0.48125 -0.08,0.755 -0.5625,0.46 -1.07375,-0.65625 -1.9325,-2.125 -2.38375,-4.7075 -0.57625,-3.25 -0.73125,-10.89375 -0.44876,-16.17125 0.0188,-0.6175 0.31,-0.685 0.7125,-0.3 1.00251,0.9625 1.64501,2.5775 1.98751,4.43 0.56999,-2.90125 1.7775,-6.46125 2.99375,-6.69625" />
      <path
         inkscape:connector-curvature="0"
         id="path6367"
         style="fill:#ffffff;fill-opacity:1;fill-rule:nonzero;stroke:none"
         d="m 383.38821,351.3543 c -0.66875,-1.50375 -1.27625,-0.99 -1.00375,0.47875 0.24,1.37 1.0725,2.66125 1.86375,3.21501 -0.1975,-1.59876 -0.47875,-2.85001 -0.86,-3.69376 m 0.18125,4.7125 c -0.9825,-0.5475 -2.3625,-1.98625 -2.9675,-3.7775 -0.59125,1.41875 -1.0975,3.3475 -1.2475,5.43125 -0.29875,4.1675 0.595,8.81625 1.845,9.59876 1.33375,0.81124 2.93125,-1.56876 3.2275,-6.59375 0.0937,-1.53001 0.0825,-3.02626 -0.007,-4.28501 -0.29125,-0.0675 -0.5625,-0.1975 -0.85,-0.37375 m 3.36,0.27625 c 0.57625,4.3725 -0.0725,9.99125 -2.27875,12.02875 -1.075,0.9825 -2.8875,1.3425 -5.08875,-0.74875 -2.435,-2.3375 -3.25125,-6.7425 -2.90875,-11.13749 0.2825,-3.73376 1.52375,-7.23501 3.5625,-8.09501 1.055,-0.44 1.78875,-0.18875 2.905,0.905 1.28375,1.255 2.44125,1.26375 3.34125,4.8375 0.0888,0.40125 0.1975,0.7425 0.28625,1.1425 0.20875,-0.0662 0.38875,-0.23 0.6675,-0.31875 0.24625,-0.0775 0.3225,0.1675 0.26,0.45375 -0.12125,0.4675 -0.41,0.77375 -0.74625,0.9325" />
      <path
         inkscape:connector-curvature="0"
         id="path6369"
         style="fill:#ffffff;fill-opacity:1;fill-rule:nonzero;stroke:none"
         d="m 387.83396,344.9383 c -0.52375,-0.61 -0.3925,-1.01 0.155,-1.08875 1.0125,-0.18875 1.98875,-0.52875 2.9175,-0.90875 0.45125,-2.99875 0.89125,-5.575 1.2375,-6.81375 0.16625,-0.7225 0.535,-0.75875 0.8575,-0.205 0.72625,1.2975 1.11875,2.93625 0.88125,5.72625 1.38,-0.38375 2.13,0.3825 2.57125,0.96 0.39375,0.53625 0.33375,0.91875 -0.2025,1.0475 -0.82125,0.0387 -1.8925,0.45375 -2.73875,0.86625 -0.595,3.66375 -1.475,8.9725 -1.8325,13.4725 -0.30875,3.91 0.8225,6.8975 2.34625,6.63625 1.63,-0.285 2.82125,-4.3025 3.25,-8.34625 0.0713,-0.6475 0.44,-0.84125 0.75,-0.18 0.36875,0.7525 0.405,1.69 0.3225,2.91875 -0.12,1.5525 -1.42875,6.49 -4.3225,7.0275 -2.38125,0.465 -5.155,-2.7575 -4.81,-8.885 0.15375,-2.66375 0.65375,-7.19875 1.24875,-11.4925 -1.21375,0.29125 -2.215,-0.2575 -2.63125,-0.735" />
      <path
         inkscape:connector-curvature="0"
         id="path6371"
         style="fill:#ffffff;fill-opacity:1;fill-rule:nonzero;stroke:none"
         d="m 407.43608,363.49543 c -3.04624,0.48625 -4.29874,-2.47125 -3.90999,-7.03375 0.41499,-5.08625 2.73249,-10.8375 2.07999,-11.19875 -0.57125,-0.3225 -3.9775,3.73875 -5.315,8.8675 -0.83125,3.18625 -1.61,6.9325 -1.99,10.14875 -0.0725,0.4775 -0.31,0.62 -0.58375,0.3 -0.725,-0.815 -1.27625,-2.17625 -0.99875,-5.32625 0.465,-5.2475 5.175,-24.2125 7.3,-29.77875 0.22875,-0.6575 0.6,-0.665 0.8775,-0.0875 0.705,1.3875 0.99875,3.92875 0.1275,7.3275 -0.54875,2.1575 -1.81875,6.55 -2.83875,10.18 1.165,-2.255 2.785,-4.22125 3.78875,-4.225 1.26375,0.005 2.79125,2.34875 2.26,5.07125 -0.44375,2.34875 -1.5975,6.31 -2.01375,9.06625 -0.43875,3.07125 0.12,5.41375 1.44625,5.1 1.47,-0.33875 2.88625,-4.29 3.495,-7.69875 0.0725,-0.4775 0.435,-0.535 0.645,-0.15375 0.26875,0.52625 0.4375,1.585 0.135,3.18625 -0.55625,3.0375 -2.36625,5.915 -4.505,6.255" />
      <path
         inkscape:connector-curvature="0"
         id="path6373"
         style="fill:#ffffff;fill-opacity:1;fill-rule:nonzero;stroke:none"
         d="m 418.94296,349.00255 c 1.1175,-2.1275 1.81625,-4.805 1.32375,-5.35375 -0.83375,-0.94874 -3.75625,2.35375 -5.3175,7.09875 -0.1025,0.25875 -0.16625,0.61876 -0.27,0.8775 1.84125,1.48375 3.21625,-0.65125 4.26375,-2.6225 m 11.6675,12.92 c -2.795,-0.1275 -3.99125,-3.57125 -3.18625,-7.735 0.67625,-3.44375 2.77625,-7.285 4.28875,-9.77999 -1.5775,1.47374 -3.215,2.03125 -4.35375,2.0625 -2.8025,8.97249 -6.5925,15.51874 -10.9575,15.74124 -4.66,0.23125 -6.41125,-6.06 -4.20375,-12.665 2.14,-6.39875 5.80625,-9.3625 7.6825,-7.93124 0.9375,0.74 1.61875,1.4375 2.2375,2.54499 0.65625,1.20875 0.37125,4.2325 -1.025,6.87875 -1.64,3.16375 -4.065,4.50875 -6.7125,1.71875 -1.04875,4.6825 -0.04,7.97625 1.835,8.0275 4.045,0.145 7.8625,-8.03875 9.705,-14.5825 -2.87125,-1.5575 0.54125,-8.45 2.07875,-8.595 1.1375,-0.0825 0.855,3.04375 0.0288,6.39 1.2775,-0.29 2.54,-1.14375 3.935,-2.51125 0.42875,-0.42125 0.7525,-0.68625 1.0225,-0.1825 0.76625,1.105 1.75,3.53125 0.69625,5.24876 -1.65375,2.70249 -3.43125,6.22749 -3.98,9.005 -0.5475,2.82624 -0.0513,4.85749 1.0525,4.87874 1.54375,0.0588 3.32375,-3.36375 4.39625,-7.1775 0.135,-0.4125 0.38875,-0.52125 0.54875,-0.065 0.1975,0.55624 0.3075,1.88249 -0.0937,3.32499 -0.83375,3.09126 -2.97125,5.50125 -4.995,5.40376" />
      <path
         inkscape:connector-curvature="0"
         id="path6375"
         style="fill:#ffffff;fill-opacity:1;fill-rule:nonzero;stroke:none"
         d="m 451.19459,347.46755 c -2.01,2.10875 -4.42001,6.01875 -6.38125,9.69 -0.16125,1.47625 0.0512,3.16625 0.98125,3.62501 1.20499,0.60749 3.11375,-0.63876 6.15374,-6.15626 2.97626,-5.37125 3.03251,-8.51875 2.21501,-8.75375 -0.745,-0.22375 -1.63125,0.20375 -2.96875,1.595 m -4.22001,15.9375 c -1.92124,-0.30875 -2.9375,-1.8675 -3.23374,-4.1925 -0.495,1.00751 -1.08875,2.155 -1.58375,3.16125 -0.22626,0.4825 -0.4525,0.4975 -0.60501,0.0588 -0.38249,-1.09625 -0.51125,-2.6175 0.7075,-5.58 1.64751,-4.0325 11.73751,-21.565 15.01251,-26.01 0.43124,-0.6025 0.72124,-0.5575 0.89874,0.19625 0.3175,1.5 -0.045,3.77125 -2.13625,7.31751 -0.76875,1.32499 -2.885,4.55874 -4.45125,7.15374 1.25875,-1.14374 2.5125,-1.76999 3.45501,-1.62 3.0825,0.49375 2.275,6.47126 -0.70251,12.30876 -2.55125,5.02625 -5.25875,7.54375 -7.36125,7.20624" />
      <path
         inkscape:connector-curvature="0"
         id="path6377"
         style="fill:#ffffff;fill-opacity:1;fill-rule:nonzero;stroke:none"
         d="m 468.38571,348.4978 c 0.525,-0.2925 0.83375,-0.3225 0.98625,0.135 0.425,1.20875 0.7475,3.6025 -0.6875,4.9875 -2.2225,2.13876 -4.735,4.83875 -5.935,7.28 -1.20125,2.44125 -1.245,4.4825 -0.2225,4.785 1.3675,0.44 3.83125,-2.22 5.845,-5.515 0.24,-0.36125 0.465,-0.35875 0.51125,0.0725 0.0462,0.59 -0.21125,1.79 -0.92875,3.03375 -1.52375,2.67875 -4.10125,4.2575 -5.96875,3.69625 -2.5325,-0.77625 -2.7675,-4.305 -0.9675,-7.81 1.585,-3.08375 4.51375,-6.1025 6.49875,-8.03625 -1.92,1.055 -3.56375,1.1275 -4.63375,0.865 -2.205,3.14375 -7.35,9.355 -9.12875,13.70625 -0.1825,0.43 -0.45625,0.62625 -0.6675,0.1 -0.67125,-1.74125 -0.11375,-4.02375 1.46625,-6.32125 1.35375,-1.9825 4.8825,-6.065 6.845,-8.37374 -1.585,-2.33251 2.9475,-7.43126 4.28,-7.15876 1.11875,0.22126 0.12875,3.03 -1.525,5.93875 1.19,0.0812 2.59625,-0.4175 4.2325,-1.385" />
      <path
         inkscape:connector-curvature="0"
         id="path6379"
         style="fill:#ffffff;fill-opacity:1;fill-rule:nonzero;stroke:none"
         d="m 479.98484,350.25868 c -0.6575,0.555 -1.60375,0.12125 -1.76251,-1.30875 -0.17999,-1.48875 0.425,-2.91 1.23001,-3.58125 0.8075,-0.67125 1.65874,0.215 1.73249,1.6725 0.0875,1.41 -0.54374,2.66375 -1.19999,3.2175 m -11.58126,10.53125 c 1.92,-3.3275 5.92876,-8.445 7.97375,-10.61875 0.48875,-0.4975 0.7775,-0.5725 0.93125,-0.05 0.3025,0.94 -0.0287,3.1325 -1.58625,5.34 -1.3675,1.945 -3.8175,4.85375 -5.27,7.0925 -1.6725,2.60125 -2.1575,4.5375 -1,4.765 1.61625,0.3625 4.49625,-2.315 6.53626,-5.39375 0.30499,-0.39125 0.53625,-0.27125 0.56499,0.1625 0.0538,0.8675 -0.35,1.8675 -1.13,2.97125 -1.94125,2.73625 -4.76125,4.155 -6.73625,3.5825 -2.68125,-0.77875 -2.43875,-4.11375 -0.28375,-7.85125" />
      <path
         inkscape:connector-curvature="0"
         id="path6381"
         style="fill:#ffffff;fill-opacity:1;fill-rule:nonzero;stroke:none"
         d="m 488.85446,355.76105 c -1.0575,-0.4375 -4.59,1.88625 -7.84125,5.52875 -3.20375,3.60625 -4.92875,7.7775 -3.54125,8.26375 1.3525,0.47625 4.09875,-2.04 7.22625,-5.77375 3.8825,-4.67875 5.1425,-7.60375 4.15625,-8.01875 m -20.37375,28.5475 c 0.1675,1.06876 4.52,-3.14 9.1125,-9.845 -5.71375,2.28625 -9.34125,8.4875 -9.1125,9.845 m 12.685,-10.44375 c -3.96875,5.93625 -8.87875,12.915 -12.205,13.59125 -0.8225,0.17126 -1.47875,-0.19375 -1.7125,-1.66 -0.28,-1.6925 -0.3775,-3.5975 1.18625,-6.2675 2.38625,-4.07375 6.33125,-6.10875 10.37875,-6.87875 0.68625,-0.96375 1.36625,-2.03625 2.0675,-3.05 -1.45875,1.09875 -3.005,1.74 -4.30125,1.335 -3.225,-1.0075 -1.9525,-7.30125 2.71375,-12.26875 4.5,-4.80625 8.025,-6.115 9.81125,-5.5575 1.4025,0.43875 1.6325,2.16875 1.06375,3.865 0.725,-0.84375 1.385,-1.6025 1.99375,-2.32125 0.49375,-0.595 0.86,-0.53499 0.96875,-0.0187 0.25125,1.04125 -0.12375,3.22625 -1.74625,5.34375 -1.965,2.59876 -6.015,7.8125 -8.96375,12.085 3.58375,-1.13 6.34875,-3.21125 8.5575,-5.36 0.3325,-0.32499 0.64875,-0.22625 0.565,0.28375 -0.065,0.46125 -0.57625,1.48001 -1.58375,2.61126 -2.295,2.54874 -5.42875,3.7125 -8.79375,4.26749" />
      <path
         inkscape:connector-curvature="0"
         id="path6383"
         style="fill:#ffffff;fill-opacity:1;fill-rule:nonzero;stroke:none"
         d="m 497.70096,377.61468 c -2.9625,-0.85875 -2.83625,-4.06625 -0.54125,-8.03125 2.54375,-4.42375 7.09125,-8.63875 6.655,-9.24375 -0.38,-0.53625 -5.1925,1.6875 -8.5875,5.7575 -2.10875,2.5275 -4.41,5.585 -6.12375,8.335 -0.26875,0.4 -0.54375,0.42625 -0.65625,0.0212 -0.3075,-1.0475 -0.2275,-2.51375 1.36625,-5.24375 2.65625,-4.55 14.99625,-19.7 19.29,-23.83 0.48875,-0.49625 0.82625,-0.345 0.8325,0.295 0.0462,1.55625 -0.77,3.98 -3.00625,6.6825 -1.41625,1.71875 -4.43625,5.1525 -6.90625,8.00125 2.015,-1.54375 4.31875,-2.6325 5.22875,-2.20875 1.14125,0.54375 1.525,3.315 -0.1175,5.55125 -1.4025,1.935 -4.1325,5.0275 -5.68375,7.345 -1.70625,2.59125 -2.1975,4.95 -0.865,5.22875 1.475,0.32125 4.43875,-2.65 6.44125,-5.47375 0.27,-0.40125 0.62125,-0.29875 0.65,0.13375 0.0187,0.59125 -0.28,1.6225 -1.23375,2.94125 -1.79875,2.51125 -4.66125,4.3425 -6.7425,3.73875" />
      <path
         inkscape:connector-curvature="0"
         id="path6385"
         style="fill:#ffffff;fill-opacity:1;fill-rule:nonzero;stroke:none"
         d="m 510.54521,358.2873 c -0.1925,-0.78125 0.10375,-1.0775 0.62875,-0.9 0.98875,0.28625 2.01125,0.425 3.01125,0.50375 1.7575,-2.47125 3.3125,-4.57 4.18,-5.51875 0.475,-0.57 0.82,-0.43625 0.85625,0.2025 0.0625,1.48625 -0.32625,3.1275 -1.7975,5.50875 1.405,0.28125 1.72875,1.3025 1.86125,2.0175 0.10875,0.65625 -0.11875,0.97 -0.6525,0.8425 -0.75125,-0.33624 -1.895,-0.45 -2.835,-0.4625 -2.18375,2.99875 -5.365,7.33875 -7.715,11.1925 -2.04,3.35001 -2.37875,6.525 -0.90125,6.98125 1.58375,0.48 4.45875,-2.565 6.665,-5.97999 0.35625,-0.545 0.7725,-0.5525 0.75,0.1775 -0.01,0.83875 -0.40125,1.69124 -1.03,2.74999 -0.8075,1.33125 -4.2025,5.14625 -7.025,4.31751 -2.335,-0.65876 -3.355,-4.78751 -0.28375,-10.09751 1.3425,-2.30749 3.83375,-6.1275 6.30125,-9.69 -1.21375,-0.28875 -1.85875,-1.23 -2.01375,-1.845" />
      <path
         inkscape:connector-curvature="0"
         id="path6387"
         style="fill:#ffffff;fill-opacity:1;fill-rule:nonzero;stroke:none"
         d="m 530.19846,362.90643 c -0.56125,0.65125 -1.56375,0.3725 -1.9475,-1.0125 -0.41375,-1.44125 -0.0438,-2.94 0.64625,-3.73 0.69,-0.79 1.67125,-0.05 1.97625,1.37625 0.31125,1.3775 -0.11375,2.715 -0.675,3.36625 m -9.76,12.23125 c 1.3675,-3.58875 4.5125,-9.27625 6.18625,-11.74625 0.4025,-0.5675 0.6775,-0.68875 0.91125,-0.19625 0.4475,0.87875 0.46875,3.09625 -0.71875,5.5225 -1.04,2.1375 -2.9975,5.39625 -4.075,7.83625 -1.2375,2.83375 -1.40875,4.82 -0.23,4.86375 1.6525,0.1 4.06875,-2.99875 5.59375,-6.3625 0.24,-0.435 0.48875,-0.3525 0.58375,0.0725 0.19125,0.84625 -0.0487,1.8975 -0.64375,3.11125 -1.48,3.00875 -4.03875,4.85625 -6.08,4.60375 -2.77,-0.3425 -3.06125,-3.6725 -1.5275,-7.705" />
      <path
         inkscape:connector-curvature="0"
         id="path6389"
         style="fill:#ffffff;fill-opacity:1;fill-rule:nonzero;stroke:none"
         d="m 532.61058,373.21955 c -2.12625,4.3275 -2.67625,8.7575 -1.24624,8.855 1.46624,0.1 3.54625,-2.84875 5.425,-7.44 2.31374,-5.59875 2.96999,-8.79875 1.90874,-8.885 -1.13625,-0.0875 -3.92125,3.0425 -6.0875,7.47 m 6.07875,9.505 c 1.50875,-0.0525 3.6025,-3.41 5.0025,-6.89125 0.19875,-0.45374 0.455,-0.44625 0.58875,-0.0325 0.13125,0.46625 0.12501,1.79375 -0.39625,3.1575 -1.085,2.77625 -3.44875,5.40875 -5.4625,5.18875 -1.97625,-0.21875 -2.9175,-1.7825 -2.8375,-4.1825 -1.24125,2.00375 -2.95375,3.83875 -4.67875,3.7825 -3.4125,-0.11125 -3.86,-6.62 -0.65,-12.65 3.095,-5.82875 6.105,-8.03125 7.94001,-7.97125 1.50499,0.05 2.1875,1.65625 2.08749,3.54625 2.15376,-5.19625 5.17125,-12.05 6.57875,-14.61125 0.39,-0.70375 0.72001,-0.64125 0.88125,0.0287 0.45875,1.70125 0.275,3.89375 -1.3925,7.67375 -1.90499,4.335 -5.705,12.64625 -7.71749,18 -1.08876,2.93 -1.19501,5.02251 0.0562,4.96125" />
      <path
         inkscape:connector-curvature="0"
         id="path6391"
         style="fill:#ffffff;fill-opacity:1;fill-rule:nonzero;stroke:none"
         d="m 551.58759,370.37768 c 1.02249,-2.2225 1.64375,-4.92875 1.0925,-5.45375 -0.82875,-0.81375 -3.6575,2.4575 -5.0425,7.42 -0.0888,0.3125 -0.1775,0.62625 -0.2325,0.88625 1.905,1.455 3.25375,-0.84125 4.1825,-2.8525 m -2.225,11.935 c 3.055,-0.008 5.445,-4.2725 6.78625,-7.74625 0.155,-0.42 0.44875,-0.44125 0.62625,0.008 0.17625,0.3975 0.165,1.8325 -0.4025,3.20375 -1.32125,3.2175 -3.98,5.75875 -6.7975,6.00625 -4.64625,0.425 -6.70125,-5.8325 -4.7775,-12.57375 1.92375,-6.7425 5.47625,-9.6525 7.41125,-8.3025 0.96874,0.7 1.6825,1.42 2.34625,2.5 0.745,1.1775 0.6675,4.30625 -0.69001,7.01375 -1.5825,3.18375 -3.94499,4.68 -6.7125,1.9525 -0.84625,4.7725 0.25626,7.92125 2.21001,7.93875" />
      <path
         inkscape:connector-curvature="0"
         id="path6393"
         style="fill:#ffffff;fill-opacity:1;fill-rule:nonzero;stroke:none"
         d="m 564.21946,363.3813 c -1.18375,0.045 -3.27375,3.7675 -4.50625,8.58875 -1.1875,4.65625 -0.9075,9.17 0.51375,8.98125 1.4925,-0.2 2.83,-3.74375 3.92625,-8.49 1.34375,-5.9275 1.14125,-9.10624 0.0662,-9.08 m 2.5475,-2.555 c 0.215,-0.71 0.4875,-0.86 0.8175,-0.45 0.69625,0.815 1.3525,2.9325 0.91,5.59875 -0.4125,2.4025 -1.585,6.48625 -2.0025,9.305 -0.42625,2.97375 -0.0975,5.14625 1.1175,4.8375 1.4675,-0.3525 2.87875,-4.115 3.55875,-7.80625 0.105,-0.48375 0.34875,-0.5775 0.57125,-0.14875 0.22125,0.43 0.43375,1.68875 0.2025,3.18 -0.47375,2.93 -2.285,6.08625 -4.30375,6.2725 -1.98125,0.18 -3.2675,-1.26125 -3.6675,-3.62875 -0.81,2.26125 -2.12375,4.40125 -3.86125,4.695 -3.3675,0.57 -5.1375,-5.7125 -3.1625,-12.3175 1.92625,-6.44125 4.40375,-9.1925 6.21375,-9.49875 1.55625,-0.2625 2.5625,1.2775 2.8225,3.25375 0.26625,-1.28875 0.52125,-2.42 0.78375,-3.2925" />
      <path
         inkscape:connector-curvature="0"
         id="path6395"
         style="fill:#ffffff;fill-opacity:1;fill-rule:nonzero;stroke:none"
         d="m 579.89946,345.12993 c 0.85625,1.2425 1.48125,3.66875 1.08375,7.72 -0.53625,5.4225 -1.27,13.9875 -1.495,19.9575 -0.0337,0.5425 -0.14625,0.68125 -0.54375,0.37 -0.755,-0.6325 -1.57625,-2.15125 -1.6525,-5.32125 -0.1075,-5.66125 0.61125,-16.4025 1.69625,-22.56875 0.1125,-0.67125 0.5,-0.7825 0.91125,-0.1575 m -0.1975,33.3075 c -0.21,0.85875 -1.31875,0.86125 -2.14,-0.125 -0.9325,-1.11375 -1.18125,-2.6375 -0.86,-3.635 0.3025,-0.93875 1.4825,-0.695 2.33875,0.5475 0.715,1.01625 0.85,2.41375 0.66125,3.2125" />
    </g>
    <text
       y="475.63504"
       x="392.99136"
       style="font-variant:normal;font-weight:normal;font-stretch:normal;line-height:0%;font-family:'AG Book Rounded Regular';-inkscape-font-specification:AGBookRounded-Regular;writing-mode:lr-tb;fill:#ffffff;fill-opacity:1;fill-rule:nonzero;stroke:none"
       id="text74"><tspan
         y="475.63504"
         x="392.99136"
         sodipodi:role="line"
         id="tspan72"
         style="font-style:normal;font-variant:normal;font-weight:normal;font-stretch:normal;font-size:25px;line-height:1.25;font-family:'AG Book Rounded';-inkscape-font-specification:'AG Book Rounded Regular Normal';font-variant-ligatures:normal;font-variant-caps:normal;font-variant-numeric:normal;font-variant-east-asian:normal">PRESS</tspan></text>
  </g>
</svg>
